<!DOCTYPE svg PUBLIC "-//W3C//DTD SVG 1.1//EN" "http://www.w3.org/Graphics/SVG/1.1/DTD/svg11.dtd">
<!-- Uploaded to: SVG Repo, www.svgrepo.com, Transformed by: SVG Repo Mixer Tools -->
<svg fill="#000000" width="800px" height="800px" viewBox="0 0 24 24" id="right-arrow-circle" data-name="Flat Line" xmlns="http://www.w3.org/2000/svg" class="icon flat-line">
<g id="SVGRepo_bgCarrier" stroke-width="0"/>
<g id="SVGRepo_tracerCarrier" stroke-linecap="round" stroke-linejoin="round"/>
<g id="SVGRepo_iconCarrier">
<path id="secondary" d="M12,3a9,9,0,1,0,9,9A9,9,0,0,0,12,3Zm4.62,9.69L13.5,14.83a1,1,0,0,1-1.5-.69V9.86a1,1,0,0,1,1.5-.69l3.12,2.14A.82.82,0,0,1,16.62,12.69Z" style="fill: #ffffff; stroke-width: 2;"/>
<path id="primary" d="M7,12h5m4.63-.69L13.5,9.17a1,1,0,0,0-1.5.69v4.28a1,1,0,0,0,1.5.69l3.12-2.14A.82.82,0,0,0,16.63,11.31ZM12,3a9,9,0,1,0,9,9A9,9,0,0,0,12,3Z" style="fill: none; stroke: #000000; stroke-linecap: round; stroke-linejoin: round; stroke-width: 2;"/>
</g>
</svg>